<?xml version="1.0" encoding="iso-8859-1"?>
<!-- Uploaded to: SVG Repo, www.svgrepo.com, Generator: SVG Repo Mixer Tools -->
<svg fill="#000000" version="1.1" id="Layer_1"
	xmlns="http://www.w3.org/2000/svg"
	xmlns:xlink="http://www.w3.org/1999/xlink" viewBox="0 0 512 512" xml:space="preserve">
	<g>
		<g>
			<path d="M312,140.076H200c-2.212,0-4,1.792-4,4s1.788,4,4,4h112c2.212,0,4-1.792,4-4S314.212,140.076,312,140.076z"/>
		</g>
	</g>
	<g>
		<g>
			<path d="M440,172H12c-2.208,0-4-1.76-4-3.924v-16C8,149.868,9.832,148,12,148h160c2.212,0,4-1.792,4-4s-1.788-4-4-4H12
			c-6.616,0-12,5.416-12,12.076v16C0,174.652,5.384,180,12,180h428c2.212,0,4-1.792,4-4S442.212,172,440,172z"/>
		</g>
	</g>
	<g>
		<g>
			<path d="M500,140H340c-2.212,0-4,1.792-4,4s1.788,4,4,4h160c2.168,0,4,1.868,4,4.076v16c0,2.164-1.792,3.924-4,3.924h-20
			c-2.212,0-4,1.792-4,4s1.788,4,4,4h20c6.616,0,12-5.348,12-11.924v-16C512,145.416,506.616,140,500,140z"/>
		</g>
	</g>
	<g>
		<g>
			<path d="M144,388H64c-15.588,0-29.18-12.636-30.3-28.26l-17.72-184.1c-0.212-2.2-2.204-3.82-4.364-3.6
			c-2.196,0.212-3.808,2.164-3.596,4.364l17.712,184.004C27.136,380.032,44.304,396,64,396h80c2.212,0,4-1.792,4-4
			S146.212,388,144,388z"/>
		</g>
	</g>
	<g>
		<g>
			<path d="M500.384,172.056c-2.168-0.208-4.152,1.4-4.364,3.6l-17.728,184.16C477.18,375.356,463.588,388,448,388h-80
			c-2.212,0-4,1.792-4,4s1.788,4,4,4h80c19.696,0,36.864-15.976,38.26-35.516l17.72-184.064
			C504.192,174.224,502.584,172.268,500.384,172.056z"/>
		</g>
	</g>
	<g>
		<g>
			<path d="M242.356,13.016c-1.888-3.832-5.152-6.704-9.196-8.08c-1.672-0.572-3.408-0.86-5.16-0.86
			c-6.852,0-12.936,4.36-15.152,10.872L168.86,146.924c-1.38,4.044-1.1,8.384,0.788,12.22s5.156,6.708,9.196,8.08
			c1.672,0.572,3.408,0.86,5.164,0.86c6.848,0,12.932-4.36,15.148-10.872l43.988-131.976
			C244.524,21.192,244.244,16.852,242.356,13.016z M235.568,22.68l-43.992,131.98c-1.388,4.076-6.036,6.4-10.152,4.996
			c-2.02-0.688-3.656-2.124-4.6-4.04c-0.944-1.92-1.084-4.088-0.388-6.136L220.424,17.5c1.108-3.244,4.152-5.424,7.576-5.424
			c0.872,0,1.74,0.144,2.58,0.432C234.756,13.928,236.996,18.48,235.568,22.68z"/>
		</g>
	</g>
	<g>
		<g>
			<path d="M343.152,146.948L299.148,14.924c-2.208-6.488-8.292-10.848-15.144-10.848c-1.752,0-3.488,0.288-5.156,0.856
			c-4.048,1.38-7.312,4.252-9.2,8.084c-1.884,3.836-2.168,8.176-0.796,12.196l44.004,132.024
			c2.208,6.488,8.292,10.848,15.144,10.848c1.752,0,3.488-0.288,5.156-0.856c4.044-1.376,7.316-4.248,9.2-8.084
			C344.24,155.308,344.524,150.968,343.152,146.948z M335.176,155.612c-0.944,1.916-2.576,3.352-4.604,4.04
			c-4.124,1.404-8.764-0.932-10.14-4.972L276.428,22.656c-1.42-4.176,0.82-8.728,5-10.152c0.836-0.284,1.704-0.428,2.576-0.428
			c3.424,0,6.468,2.18,7.568,5.404l44,132.02C336.26,151.524,336.116,153.696,335.176,155.612z"/>
		</g>
	</g>
	<g>
		<g>
			<path d="M256,208.076c-8.824,0-16,7.176-16,16V280c0,2.208,1.788,4,4,4c2.212,0,4-1.792,4-4v-55.924c0-4.412,3.588-8,8-8
			s8,3.588,8,8V280c0,2.208,1.788,4,4,4c2.212,0,4-1.792,4-4v-55.924C272,215.252,264.824,208.076,256,208.076z"/>
		</g>
	</g>
	<g>
		<g>
			<path d="M180,208.076c-8.824,0-16,7.176-16,16V320c0,2.208,1.788,4,4,4c2.212,0,4-1.792,4-4v-95.924c0-4.412,3.588-8,8-8
			s8,3.588,8,8V300c0,2.208,1.788,4,4,4c2.212,0,4-1.792,4-4v-75.924C196,215.252,188.824,208.076,180,208.076z"/>
		</g>
	</g>
	<g>
		<g>
			<path d="M104,208.076c-8.824,0-16,7.176-16,16v124c0,8.824,7.176,16,16,16s16-7.176,16-16v-124
			C120,215.252,112.824,208.076,104,208.076z M112,348.076c0,4.412-3.588,8-8,8s-8-3.588-8-8v-124c0-4.412,3.588-8,8-8s8,3.588,8,8
			V348.076z"/>
		</g>
	</g>
	<g>
		<g>
			<path d="M408,208.076c-8.824,0-16,7.176-16,16v124c0,8.824,7.176,16,16,16c8.824,0,16-7.176,16-16v-124
			C424,215.252,416.824,208.076,408,208.076z M416,348.076c0,4.412-3.588,8-8,8s-8-3.588-8-8v-124c0-4.412,3.588-8,8-8s8,3.588,8,8
			V348.076z"/>
		</g>
	</g>
	<g>
		<g>
			<path d="M332,208.076c-8.824,0-16,7.176-16,16V300c0,2.208,1.788,4,4,4c2.212,0,4-1.792,4-4v-75.924c0-4.412,3.588-8,8-8
			s8,3.588,8,8V320c0,2.208,1.788,4,4,4c2.212,0,4-1.792,4-4v-95.924C348,215.252,340.824,208.076,332,208.076z"/>
		</g>
	</g>
	<g>
		<g>
			<path d="M307.636,380H268v-39.652c0-6.576-5.384-11.928-12-11.928c-6.616,0-12,5.348-12,11.928V380h-40.116
			c-6.58,0-11.932,5.384-11.932,12c0,6.616,5.348,12,11.932,12H244v40.108c0,6.576,5.384,11.928,12,11.928
			c6.616,0,12-5.352,12-11.928V404h39.636c6.58,0,11.932-5.384,11.932-12C319.568,385.384,314.22,380,307.636,380z M307.636,396H264
			c-2.212,0-4,1.792-4,4v44.108c0,2.164-1.792,3.928-4,3.928c-2.168,0-4-1.796-4-3.928V400c0-2.208-1.788-4-4-4h-44.116
			c-2.168,0-3.932-1.796-3.932-4c0-2.204,1.764-4,3.932-4H248c2.212,0,4-1.792,4-4v-43.652c0-2.128,1.832-3.928,4-3.928
			c2.208,0,4,1.76,4,3.928V384c0,2.208,1.788,4,4,4h43.636c2.168,0,3.932,1.796,3.932,4C311.568,394.204,309.804,396,307.636,396z" />
		</g>
	</g>
	<g>
		<g>
			<path d="M256.052,276.228c-63.876,0-115.844,51.968-115.844,115.844c0,63.88,51.968,115.852,115.844,115.852
			c63.872,0,115.844-51.972,115.844-115.852C371.896,328.196,319.928,276.228,256.052,276.228z M256.052,499.924
			c-59.464,0-107.844-48.384-107.844-107.852c0-59.464,48.38-107.844,107.844-107.844s107.844,48.38,107.844,107.844
			C363.896,451.54,315.516,499.924,256.052,499.924z"/>
		</g>
	</g>
	<g>
		<g>
			<path d="M334.012,329.232c-1.388-1.716-3.908-1.984-5.624-0.592c-1.716,1.392-1.984,3.912-0.592,5.628
			c13.184,16.284,20.444,36.816,20.444,57.812c0,50.696-41.248,91.94-91.944,91.94c-50.696,0-91.944-41.244-91.944-91.94
			c0-50.696,41.244-91.94,91.944-91.94c18.044,0,35.504,5.216,50.5,15.092c1.848,1.224,4.324,0.708,5.54-1.14
			c1.216-1.844,0.708-4.324-1.14-5.54c-16.308-10.74-35.292-16.416-54.9-16.416c-55.108,0-99.944,44.832-99.944,99.94
			c0,55.108,44.836,99.94,99.944,99.94c55.112,0,99.948-44.832,99.944-99.94C356.24,369.252,348.344,346.936,334.012,329.232z"/>
		</g>
	</g>
</svg>